<svg xmlns="http://www.w3.org/2000/svg" xmlns:xlink="http://www.w3.org/1999/xlink" width="500" zoomAndPan="magnify" viewBox="0 0 375 374.999991" height="500" preserveAspectRatio="xMidYMid meet" version="1.0"><defs><g/><clipPath id="2ba5296991"><path d="M 13 0 L 172 0 L 172 371.25 L 13 371.25 Z M 13 0 " clip-rule="nonzero"/></clipPath></defs><g clip-path="url(#2ba5296991)"><path fill="#ff3131" d="M 143.726562 1.773438 C 144.59375 1.773438 145.539062 1.894531 146.570312 2.132812 C 145.539062 1.894531 144.59375 1.773438 143.726562 1.773438 C 142.863281 1.773438 142.078125 1.894531 141.375 2.132812 C 142.078125 1.894531 142.863281 1.773438 143.726562 1.773438 Z M 121.902344 62.320312 C 123.335938 62.320312 124.800781 62.53125 126.292969 62.949219 C 124.800781 62.53125 123.335938 62.320312 121.902344 62.320312 C 120.472656 62.320312 119.070312 62.53125 117.703125 62.949219 C 119.070312 62.53125 120.472656 62.320312 121.902344 62.320312 Z M 90.328125 94.285156 C 90.328125 94.285156 90.328125 94.285156 90.324219 94.285156 C 90.324219 94.285156 90.324219 94.285156 90.320312 94.285156 Z M 90.117188 94.246094 L 90.113281 94.246094 L 84.445312 94.429688 L 90.113281 94.246094 Z M 93.746094 95.714844 C 93.742188 95.714844 93.738281 95.714844 93.734375 95.714844 C 93.730469 95.714844 93.726562 95.714844 93.71875 95.714844 Z M 110.753906 109.902344 L 110.75 109.902344 L 110.703125 109.925781 L 110.75 109.902344 Z M 109.796875 144.167969 C 109.8125 144.167969 109.828125 144.167969 109.84375 144.167969 C 109.828125 144.167969 109.8125 144.167969 109.796875 144.167969 C 109.78125 144.167969 109.761719 144.167969 109.746094 144.167969 C 109.761719 144.167969 109.78125 144.167969 109.796875 144.167969 Z M 86.144531 178.511719 C 86.148438 178.511719 86.148438 178.511719 86.148438 178.511719 Z M 109.566406 146.464844 C 111.5625 150.183594 112.757812 152.746094 113.152344 154.152344 C 113.355469 154.785156 113.464844 155.425781 113.484375 156.082031 C 113.289062 158.382812 113.226562 159.699219 113.292969 160.035156 C 113.335938 160.75 113.464844 161.5625 113.675781 162.472656 C 114.003906 163.863281 114.460938 165.308594 115.046875 166.808594 C 115.695312 168.480469 116.441406 169.917969 117.289062 171.128906 C 117.378906 171.210938 117.351562 171.320312 117.207031 171.460938 C 115.632812 172.863281 110.761719 175.816406 102.589844 180.3125 C 97.554688 183.039062 94.121094 184.554688 92.289062 184.867188 C 92.003906 184.917969 91.742188 184.945312 91.511719 184.945312 C 90.964844 184.945312 90.585938 184.792969 90.367188 184.488281 C 90.1875 184.214844 90.046875 183.847656 89.957031 183.378906 C 89.648438 180.398438 89.371094 178.78125 89.121094 178.519531 C 88.726562 177.609375 87.925781 177.054688 86.714844 176.851562 L 90.644531 169.53125 C 91.339844 168.332031 92.242188 166.992188 93.351562 165.519531 C 95.070312 163.125 100.460938 156.789062 109.523438 146.507812 Z M 91.34375 186.621094 C 91.34375 186.621094 91.34375 186.621094 91.339844 186.621094 C 91.339844 186.621094 91.339844 186.621094 91.335938 186.621094 Z M 91.636719 186.625 C 91.636719 186.625 91.632812 186.625 91.628906 186.625 C 91.628906 186.625 91.625 186.625 91.621094 186.625 Z M 26.8125 368.359375 C 26.800781 368.359375 26.789062 368.359375 26.777344 368.359375 C 26.765625 368.359375 26.753906 368.359375 26.742188 368.359375 Z M 100.996094 369.90625 C 100.996094 369.90625 100.992188 369.90625 100.992188 369.90625 C 100.988281 369.90625 100.988281 369.90625 100.984375 369.90625 Z M 144.023438 0.046875 C 137.273438 0.046875 119.878906 11.8125 91.839844 35.339844 C 80.429688 52.121094 74.121094 61.820312 72.917969 64.433594 C 71.066406 67.730469 69.769531 70.460938 69.019531 72.625 L 66.792969 82.757812 C 66.40625 84.042969 65.980469 85.113281 65.507812 85.972656 C 55.195312 100.761719 49.785156 109.183594 49.289062 111.238281 C 45.652344 118.195312 40.226562 132.464844 33.007812 154.046875 C 27.941406 169.34375 25.019531 178.800781 24.242188 182.417969 C 24.230469 186.492188 23.96875 189.667969 23.460938 191.949219 L 15.226562 231.230469 C 14.144531 236.769531 13.503906 241.339844 13.308594 244.9375 C 13.1875 247.160156 13.21875 248.273438 13.390625 248.273438 C 13.425781 248.273438 13.46875 248.226562 13.519531 248.128906 L 22.707031 250.792969 L 23.199219 257.257812 C 23.652344 263.238281 23.746094 267.804688 23.484375 270.964844 C 23.574219 272.269531 22.574219 277.300781 20.492188 286.050781 C 20.058594 288.816406 19.882812 291.65625 19.964844 294.574219 C 19.867188 299.582031 21.46875 310.859375 24.773438 328.40625 C 25.101562 330.683594 25.183594 333.039062 25.023438 335.472656 C 24.8125 337.882812 24.390625 340.0625 23.761719 342.015625 L 17.46875 359.15625 L 15.726562 365.898438 C 15.386719 368.128906 17.464844 369.414062 21.960938 369.753906 C 24.027344 369.933594 25.871094 370.023438 27.488281 370.023438 C 31.429688 370.023438 34.027344 369.492188 35.277344 368.421875 C 35.941406 367.890625 36.359375 367.253906 36.527344 366.519531 L 36.582031 360.933594 C 40.144531 356.75 41.734375 354.492188 41.355469 354.164062 C 41.695312 353.042969 41.640625 351.464844 41.1875 349.421875 L 36.304688 333.476562 C 35.824219 330.863281 35.796875 327.765625 36.21875 324.1875 L 36.214844 324.1875 C 36.214844 324.1875 36.210938 324.1875 36.207031 324.1875 C 35.949219 324.1875 37.691406 314.832031 41.4375 296.121094 L 41.300781 280.304688 C 45.46875 272.875 47.40625 263.558594 47.113281 252.351562 C 48.128906 252.332031 48.761719 252.160156 49.007812 251.835938 L 54.808594 232.246094 L 58.066406 252.382812 L 67.90625 252.910156 C 70.238281 267.265625 72.71875 276.613281 75.347656 280.953125 C 75.714844 281.039062 75.832031 285.359375 75.703125 293.914062 C 75.78125 295.378906 75.960938 296.765625 76.246094 298.074219 L 82.65625 314.773438 C 83.945312 319.207031 84.886719 324.070312 85.472656 329.371094 C 85.8125 332.242188 85.867188 335.09375 85.644531 337.925781 L 82.964844 351.023438 C 82.738281 353.257812 82.84375 354.832031 83.28125 355.746094 C 83.339844 356.519531 84.953125 358.703125 88.128906 362.292969 L 90.300781 368.398438 C 90.988281 369.449219 91.757812 370.132812 92.609375 370.457031 C 95.996094 371.167969 98.898438 371.519531 101.320312 371.519531 C 105.992188 371.519531 108.871094 370.203125 109.957031 367.5625 C 110.566406 365.265625 110.429688 363.136719 109.546875 361.175781 L 98.335938 341.59375 C 97.261719 339.644531 96.574219 337.597656 96.273438 335.453125 C 96.0625 333.59375 96.023438 331.691406 96.144531 329.753906 L 97.597656 309.660156 C 97.714844 306.019531 97.695312 302.863281 97.546875 300.191406 C 97.761719 297.535156 96.113281 286.035156 92.597656 265.695312 C 92.128906 261.933594 91.90625 259.074219 91.929688 257.121094 C 91.929688 254.800781 92.078125 252.457031 92.367188 250.097656 L 96.425781 247.230469 L 90.503906 211.363281 C 89.832031 206.515625 89.761719 201.726562 90.292969 197.003906 L 123.378906 187.414062 C 126.875 186.371094 129.117188 185.492188 130.105469 184.773438 C 132.4375 184.257812 133.65625 179.007812 133.757812 169.027344 C 133.75 164.53125 133.433594 161.257812 132.800781 159.210938 L 128.601562 149.714844 L 128.972656 138.941406 C 128.757812 136.507812 128.296875 134.375 127.582031 132.542969 C 126.84375 130.453125 125.804688 128.46875 124.464844 126.589844 L 117.183594 118.609375 L 112.375 109.636719 L 114.933594 106.027344 C 114.976562 106.03125 115.023438 106.03125 115.066406 106.03125 C 118.238281 106.03125 120.789062 105.371094 122.722656 104.050781 C 125.402344 102.308594 127.6875 99.808594 129.578125 96.546875 C 130.363281 95.371094 131.878906 91.863281 134.128906 86.023438 L 136.582031 81.011719 C 137.089844 79.808594 137.484375 78.648438 137.757812 77.523438 C 138.453125 75.511719 138.21875 72.695312 137.050781 69.082031 C 136.25 66.921875 134.777344 65.167969 132.632812 63.816406 L 132.59375 63.792969 C 128.769531 61.726562 125.15625 60.691406 121.765625 60.691406 C 118.582031 60.691406 115.585938 61.601562 112.785156 63.421875 C 109.933594 65.277344 107.753906 67.433594 106.242188 69.894531 C 105.789062 70.683594 105.472656 71.445312 105.296875 72.179688 L 104.808594 75.695312 C 103.28125 78.210938 102.550781 79.628906 102.617188 79.953125 C 102.34375 80.96875 102.40625 82.4375 102.808594 84.363281 L 95.066406 93.839844 C 94.53125 93.972656 94.0625 94.035156 93.660156 94.035156 C 93.375 94.035156 93.125 94.003906 92.902344 93.9375 C 92.523438 93.828125 92.015625 93.460938 91.382812 92.832031 L 91.378906 92.832031 C 91.976562 90.28125 92.3125 88.339844 92.390625 87.007812 C 92.667969 86.226562 92.429688 83.152344 91.679688 77.785156 C 91.671875 76.0625 91.78125 74.917969 92.003906 74.359375 C 92.304688 73.273438 92.824219 72.132812 93.570312 70.941406 L 99.296875 62.117188 L 103.761719 50.199219 L 134.9375 17.554688 C 136.917969 15.765625 138.375 14.796875 139.308594 14.648438 C 145.816406 19.496094 150.019531 22.015625 151.917969 22.199219 C 152.269531 22.308594 152.621094 22.363281 152.976562 22.363281 C 154.285156 22.363281 155.625 21.625 157 20.148438 C 161.648438 21.84375 164.929688 22.695312 166.835938 22.695312 C 167.070312 22.695312 167.28125 22.679688 167.472656 22.65625 C 168.851562 22.636719 169.941406 21.9375 170.753906 20.558594 C 171.941406 17.210938 171.242188 14.457031 168.644531 12.292969 C 157.546875 4.628906 149.773438 0.609375 145.324219 0.230469 L 145.308594 0.230469 C 144.9375 0.109375 144.507812 0.046875 144.023438 0.046875 Z M 144.023438 0.046875 " fill-opacity="1" fill-rule="nonzero"/></g><g fill="#ffffff" fill-opacity="1"><g transform="translate(106.128016, 239.177972)"><g><path d="M 12.421875 -25.625 L 12.421875 0 L 3 0 L 3 -41.296875 L 12.421875 -41.296875 L 28.84375 -15.671875 L 28.9375 -15.671875 L 28.9375 -41.296875 L 38.34375 -41.296875 L 38.34375 0 L 28.9375 0 L 12.515625 -25.625 Z M 12.421875 -25.625 "/></g></g></g><g fill="#ffffff" fill-opacity="1"><g transform="translate(147.479671, 239.177972)"><g><path d="M 37.140625 0 L 35.1875 -24.484375 L 34.9375 -24.484375 L 26.484375 -0.25 L 20.875 -0.25 L 12.421875 -24.484375 L 12.171875 -24.484375 L 10.21875 0 L 0.796875 0 L 4.5 -41.296875 L 14.515625 -41.296875 L 23.671875 -17.46875 L 32.84375 -41.296875 L 42.859375 -41.296875 L 46.5625 0 Z M 37.140625 0 "/></g></g></g><g fill="#ffffff" fill-opacity="1"><g transform="translate(194.838833, 239.177972)"><g><path d="M 26.890625 -41.296875 L 26.890625 -33.046875 L 12.421875 -33.046875 L 12.421875 -24.828125 L 25.78125 -24.828125 L 25.78125 -16.578125 L 12.421875 -16.578125 L 12.421875 0 L 3 0 L 3 -41.296875 Z M 26.890625 -41.296875 "/></g></g></g><g fill="#ffffff" fill-opacity="1"><g transform="translate(223.224288, 239.177972)"><g><path d="M 3.84375 -40 C 4.882812 -41.03125 6.125 -41.546875 7.5625 -41.546875 C 9 -41.546875 10.234375 -41.03125 11.265625 -40 C 12.296875 -38.96875 12.8125 -37.734375 12.8125 -36.296875 C 12.8125 -34.859375 12.296875 -33.617188 11.265625 -32.578125 C 10.234375 -31.546875 9 -31.03125 7.5625 -31.03125 C 6.125 -31.03125 4.882812 -31.546875 3.84375 -32.578125 C 2.8125 -33.617188 2.296875 -34.859375 2.296875 -36.296875 C 2.296875 -37.734375 2.8125 -38.96875 3.84375 -40 Z M 3 -25.6875 L 3 0 L 11.859375 0 L 11.859375 -25.6875 Z M 3 -25.6875 "/></g></g></g><g fill="#ffffff" fill-opacity="1"><g transform="translate(238.343168, 239.177972)"><g><path d="M 4.5 -25.6875 L 4.5 -35.25 L 13.359375 -35.25 L 13.359375 -25.6875 L 18.765625 -25.6875 L 18.765625 -18.921875 L 13.359375 -18.921875 L 13.359375 -10.765625 C 13.359375 -8.390625 14.03125 -7.203125 15.375 -7.203125 C 15.707031 -7.203125 16.054688 -7.269531 16.421875 -7.40625 C 16.785156 -7.539062 17.066406 -7.675781 17.265625 -7.8125 L 17.578125 -8.015625 L 19.78125 -0.84375 C 17.875 0.21875 15.703125 0.75 13.265625 0.75 C 11.597656 0.75 10.160156 0.457031 8.953125 -0.125 C 7.753906 -0.707031 6.847656 -1.488281 6.234375 -2.46875 C 5.617188 -3.457031 5.175781 -4.492188 4.90625 -5.578125 C 4.632812 -6.660156 4.5 -7.820312 4.5 -9.0625 L 4.5 -18.921875 L 0.796875 -18.921875 L 0.796875 -25.6875 Z M 4.5 -25.6875 "/></g></g></g><g fill="#ffffff" fill-opacity="1"><g transform="translate(258.11787, 239.177972)"><g><path d="M 3 0 L 3 -25.6875 L 11.859375 -25.6875 L 11.859375 -22.984375 L 11.96875 -22.984375 C 14.269531 -25.285156 16.722656 -26.4375 19.328125 -26.4375 C 20.585938 -26.4375 21.84375 -26.269531 23.09375 -25.9375 C 24.351562 -25.601562 25.554688 -25.082031 26.703125 -24.375 C 27.859375 -23.675781 28.796875 -22.679688 29.515625 -21.390625 C 30.234375 -20.109375 30.59375 -18.617188 30.59375 -16.921875 L 30.59375 0 L 21.734375 0 L 21.734375 -14.515625 C 21.734375 -15.847656 21.304688 -17.015625 20.453125 -18.015625 C 19.597656 -19.023438 18.488281 -19.53125 17.125 -19.53125 C 15.789062 -19.53125 14.578125 -19.007812 13.484375 -17.96875 C 12.398438 -16.9375 11.859375 -15.785156 11.859375 -14.515625 L 11.859375 0 Z M 3 0 "/></g></g></g><g fill="#ffffff" fill-opacity="1"><g transform="translate(291.209203, 239.177972)"><g><path d="M 28.984375 -11.609375 L 10.359375 -11.609375 C 10.359375 -9.804688 10.941406 -8.472656 12.109375 -7.609375 C 13.285156 -6.742188 14.554688 -6.3125 15.921875 -6.3125 C 17.359375 -6.3125 18.492188 -6.5 19.328125 -6.875 C 20.160156 -7.257812 21.109375 -8.019531 22.171875 -9.15625 L 28.578125 -5.953125 C 25.910156 -1.484375 21.472656 0.75 15.265625 0.75 C 11.398438 0.75 8.082031 -0.570312 5.3125 -3.21875 C 2.539062 -5.875 1.15625 -9.070312 1.15625 -12.8125 C 1.15625 -16.550781 2.539062 -19.753906 5.3125 -22.421875 C 8.082031 -25.097656 11.398438 -26.4375 15.265625 -26.4375 C 19.335938 -26.4375 22.648438 -25.257812 25.203125 -22.90625 C 27.753906 -20.550781 29.03125 -17.1875 29.03125 -12.8125 C 29.03125 -12.21875 29.015625 -11.816406 28.984375 -11.609375 Z M 10.609375 -16.515625 L 20.375 -16.515625 C 20.175781 -17.847656 19.648438 -18.875 18.796875 -19.59375 C 17.941406 -20.3125 16.847656 -20.671875 15.515625 -20.671875 C 14.046875 -20.671875 12.878906 -20.285156 12.015625 -19.515625 C 11.148438 -18.753906 10.679688 -17.753906 10.609375 -16.515625 Z M 10.609375 -16.515625 "/></g></g></g><g fill="#ffffff" fill-opacity="1"><g transform="translate(321.396907, 239.177972)"><g><path d="M 14.171875 -26.4375 C 15.640625 -26.4375 17.085938 -26.269531 18.515625 -25.9375 C 19.953125 -25.601562 21.023438 -25.269531 21.734375 -24.9375 L 22.78125 -24.4375 L 19.875 -18.625 C 17.875 -19.6875 15.972656 -20.21875 14.171875 -20.21875 C 13.171875 -20.21875 12.460938 -20.109375 12.046875 -19.890625 C 11.628906 -19.679688 11.421875 -19.273438 11.421875 -18.671875 C 11.421875 -18.535156 11.4375 -18.398438 11.46875 -18.265625 C 11.5 -18.140625 11.5625 -18.015625 11.65625 -17.890625 C 11.757812 -17.773438 11.851562 -17.675781 11.9375 -17.59375 C 12.019531 -17.507812 12.160156 -17.414062 12.359375 -17.3125 C 12.566406 -17.21875 12.726562 -17.144531 12.84375 -17.09375 C 12.957031 -17.039062 13.144531 -16.960938 13.40625 -16.859375 C 13.675781 -16.765625 13.878906 -16.691406 14.015625 -16.640625 C 14.148438 -16.597656 14.375 -16.523438 14.6875 -16.421875 C 15.007812 -16.316406 15.253906 -16.25 15.421875 -16.21875 C 16.453125 -15.914062 17.351562 -15.582031 18.125 -15.21875 C 18.894531 -14.851562 19.703125 -14.351562 20.546875 -13.71875 C 21.398438 -13.082031 22.0625 -12.28125 22.53125 -11.3125 C 23 -10.34375 23.234375 -9.242188 23.234375 -8.015625 C 23.234375 -2.171875 19.175781 0.75 11.0625 0.75 C 9.226562 0.75 7.484375 0.46875 5.828125 -0.09375 C 4.179688 -0.664062 2.988281 -1.234375 2.25 -1.796875 L 1.15625 -2.703125 L 4.75 -8.765625 C 5.019531 -8.523438 5.367188 -8.242188 5.796875 -7.921875 C 6.234375 -7.609375 7.019531 -7.175781 8.15625 -6.625 C 9.289062 -6.082031 10.273438 -5.8125 11.109375 -5.8125 C 12.953125 -5.8125 13.875 -6.425781 13.875 -7.65625 C 13.875 -8.226562 13.640625 -8.671875 13.171875 -8.984375 C 12.703125 -9.304688 11.90625 -9.664062 10.78125 -10.0625 C 9.664062 -10.457031 8.789062 -10.820312 8.15625 -11.15625 C 6.550781 -12 5.28125 -12.941406 4.34375 -13.984375 C 3.414062 -15.035156 2.953125 -16.429688 2.953125 -18.171875 C 2.953125 -20.773438 3.960938 -22.800781 5.984375 -24.25 C 8.003906 -25.707031 10.734375 -26.4375 14.171875 -26.4375 Z M 14.171875 -26.4375 "/></g></g></g><g fill="#ffffff" fill-opacity="1"><g transform="translate(346.027658, 239.177972)"><g><path d="M 14.171875 -26.4375 C 15.640625 -26.4375 17.085938 -26.269531 18.515625 -25.9375 C 19.953125 -25.601562 21.023438 -25.269531 21.734375 -24.9375 L 22.78125 -24.4375 L 19.875 -18.625 C 17.875 -19.6875 15.972656 -20.21875 14.171875 -20.21875 C 13.171875 -20.21875 12.460938 -20.109375 12.046875 -19.890625 C 11.628906 -19.679688 11.421875 -19.273438 11.421875 -18.671875 C 11.421875 -18.535156 11.4375 -18.398438 11.46875 -18.265625 C 11.5 -18.140625 11.5625 -18.015625 11.65625 -17.890625 C 11.757812 -17.773438 11.851562 -17.675781 11.9375 -17.59375 C 12.019531 -17.507812 12.160156 -17.414062 12.359375 -17.3125 C 12.566406 -17.21875 12.726562 -17.144531 12.84375 -17.09375 C 12.957031 -17.039062 13.144531 -16.960938 13.40625 -16.859375 C 13.675781 -16.765625 13.878906 -16.691406 14.015625 -16.640625 C 14.148438 -16.597656 14.375 -16.523438 14.6875 -16.421875 C 15.007812 -16.316406 15.253906 -16.25 15.421875 -16.21875 C 16.453125 -15.914062 17.351562 -15.582031 18.125 -15.21875 C 18.894531 -14.851562 19.703125 -14.351562 20.546875 -13.71875 C 21.398438 -13.082031 22.0625 -12.28125 22.53125 -11.3125 C 23 -10.34375 23.234375 -9.242188 23.234375 -8.015625 C 23.234375 -2.171875 19.175781 0.75 11.0625 0.75 C 9.226562 0.75 7.484375 0.46875 5.828125 -0.09375 C 4.179688 -0.664062 2.988281 -1.234375 2.25 -1.796875 L 1.15625 -2.703125 L 4.75 -8.765625 C 5.019531 -8.523438 5.367188 -8.242188 5.796875 -7.921875 C 6.234375 -7.609375 7.019531 -7.175781 8.15625 -6.625 C 9.289062 -6.082031 10.273438 -5.8125 11.109375 -5.8125 C 12.953125 -5.8125 13.875 -6.425781 13.875 -7.65625 C 13.875 -8.226562 13.640625 -8.671875 13.171875 -8.984375 C 12.703125 -9.304688 11.90625 -9.664062 10.78125 -10.0625 C 9.664062 -10.457031 8.789062 -10.820312 8.15625 -11.15625 C 6.550781 -12 5.28125 -12.941406 4.34375 -13.984375 C 3.414062 -15.035156 2.953125 -16.429688 2.953125 -18.171875 C 2.953125 -20.773438 3.960938 -22.800781 5.984375 -24.25 C 8.003906 -25.707031 10.734375 -26.4375 14.171875 -26.4375 Z M 14.171875 -26.4375 "/></g></g></g></svg>